<?xml version="1.0" standalone="no"?>
<svg viewBox="0 0 200 200" xmlns="http://www.w3.org/2000/svg">
  <path fill="#F2F4F8" d="M42.6,-74.5C55.4,-66.4,66.1,-55.4,69.3,-42.5C72.5,-29.6,68.3,-14.8,68.9,0.4C69.5,15.5,75.1,31,69.7,40.1C64.3,49.2,47.9,51.9,34.5,58.1C21,64.3,10.5,73.9,-1,75.7C-12.6,77.5,-25.2,71.4,-34.6,62.9C-44,54.4,-50.2,43.5,-59.7,32.6C-69.1,21.7,-81.8,10.9,-84.4,-1.5C-87,-13.8,-79.4,-27.7,-71.7,-41.6C-64,-55.4,-56,-69.3,-44,-77.8C-32,-86.3,-16,-89.4,-0.6,-88.5C14.9,-87.5,29.8,-82.5,42.6,-74.5Z" transform="translate(100 100)" />
</svg>
